# xmcd
#
# Track frame offsets:
#	150
#	16195
#	32550
#	47937
#	62969
#	83099
#	97144
#	113185
#	122062
#	141984
#	163697
#	177905
#	199027
#	219283
#	230121
#	248629
#	267558
#	281483
#	294995
#	307670
#	320087
#	340981
#
# Disc length: 4746 seconds
#
# Revision: 0
# Processed by: cddbd v1.5.1PL0 Copyright (c) Steve Scherf et al.
# Submitted via: MusicWizard 7.2.0
#
DISCID=48128816
DTITLE=Various Artist - Shania Twain - Gold 2000
DYEAR=1900
DGENRE=Country
TTITLE0=Shania Twain - Don`t Be Stupid
TTITLE1=Shania Twain - When
TTITLE2=Shania Twain - Man! I Feel Like A Woman
TTITLE3=Shania Twain - You`re Still The One
TTITLE4=Shania Twain - That Don`t Impress Me Much
TTITLE5=Shania Twain - Still Under The Water
TTITLE6=Shania Twain - Love Gets Me Every Time
TTITLE7=Shania Twain - Amneri Lrtter
TTITLE8=Shania Twain - You Win My Love
TTITLE9=Shania Twain - The Woman In Me
TTITLE10=Shania Twain - Honey I`m Home
TTITLE11=Shania Twain - From This Moment On
TTITLE12=Shania Twain - I`m Outta Here
TTITLE13=Shania Twain - Dance With The One That Brought You
TTITLE14=Shania Twain - Any Man Of Mine
TTITLE15=Shania Twain - Home Aint Where His Heart Is
TTITLE16=Shania Twain - No One Needs To Know
TTITLE17=Shania Twain - What Made You Say That
TTITLE18=Shania Twain - You Lay A Whole Lot Of Love On Me
TTITLE19=Shania Twain - God Ain`t Gonna Getcha For That
TTITLE20=Shania Twain - Whose Bad Have Your Boots Been Under
TTITLE21=Shania Twain - You`re Still The One
EXTD=
EXTT0=
EXTT1=
EXTT2=
EXTT3=
EXTT4=
EXTT5=
EXTT6=
EXTT7=
EXTT8=
EXTT9=
EXTT10=
EXTT11=
EXTT12=
EXTT13=
EXTT14=
EXTT15=
EXTT16=
EXTT17=
EXTT18=
EXTT19=
EXTT20=
EXTT21=
PLAYORDER=
